<?xml version="1.0" encoding="utf-8"?>
<!-- Generator: Adobe Illustrator 23.1.0, SVG Export Plug-In . SVG Version: 6.00 Build 0)  -->
<svg version="1.1" id="Layer_1" xmlns="http://www.w3.org/2000/svg" xmlns:xlink="http://www.w3.org/1999/xlink" x="0px" y="0px"
	 viewBox="0 0 1869.3 1080" style="enable-background:new 0 0 1869.3 1080;" xml:space="preserve">
<style type="text/css">
	.st0{fill:#F5F5F5;}
	.st1{fill:url(#SVGID_1_);}
	.st2{fill:#FF5252;}
	.st3{fill:#FFFF00;}
	.st4{fill:#69F0AE;}
	.st5{fill:url(#SVGID_2_);}
	.st6{fill:#424242;}
	.st7{fill:url(#SVGID_3_);}
	.st8{fill:#FF9800;}
	.st9{opacity:0.4;fill:#424242;enable-background:new    ;}
	.st10{fill:url(#SVGID_4_);}
	.st11{fill:url(#SVGID_5_);}
	.st12{fill:url(#SVGID_6_);}
	.st13{fill:url(#SVGID_7_);}
	.st14{fill:#FFFFFF;}
	.st15{fill:url(#SVGID_8_);}
	.st16{fill:url(#SVGID_9_);}
	.st17{fill:url(#SVGID_10_);}
	.st18{fill:url(#SVGID_11_);}
	.st19{fill:url(#SVGID_12_);}
	.st20{opacity:0.2;enable-background:new    ;}
</style>
<g transform="translate(0.005 0.003)">
	
		<rect x="1335.8" y="-295" transform="matrix(0.1502 -0.9887 0.9887 0.1502 959.1151 1507.6359)" class="st0" width="41.5" height="981.8"/>
	
		<linearGradient id="SVGID_1_" gradientUnits="userSpaceOnUse" x1="-23.5004" y1="1079.0948" x2="-23.5004" y2="1079.8608" gradientTransform="matrix(117.8853 -775.8168 -1011.6359 -153.718 1096109.375 148252.4531)">
		<stop  offset="0" style="stop-color:#808080;stop-opacity:0.251"/>
		<stop  offset="0.54" style="stop-color:#808080;stop-opacity:0.122"/>
		<stop  offset="1" style="stop-color:#808080;stop-opacity:0.102"/>
	</linearGradient>
	<polygon class="st1" points="739.8,860.9 857.6,85.1 1869.3,238.8 1751.4,1014.7 	"/>
	
		<rect x="941.9" y="79.2" transform="matrix(0.1502 -0.9887 0.9887 0.1502 540.7842 1769.4004)" class="st0" width="715.6" height="981.8"/>
	<circle class="st2" cx="895" cy="125.7" r="10.1"/>
	<circle class="st3" cx="922.5" cy="129.9" r="10.1"/>
	<circle class="st4" cx="950.1" cy="134.1" r="10.1"/>
	
		<linearGradient id="SVGID_2_" gradientUnits="userSpaceOnUse" x1="-23.4911" y1="1079.3281" x2="-23.4911" y2="1079.6221" gradientTransform="matrix(38.9491 -256.3287 -871.5143 -132.4266 943004.4375 137335.5469)">
		<stop  offset="0" style="stop-color:#808080;stop-opacity:0.251"/>
		<stop  offset="0.54" style="stop-color:#808080;stop-opacity:0.122"/>
		<stop  offset="1" style="stop-color:#808080;stop-opacity:0.102"/>
	</linearGradient>
	<polygon class="st5" points="860.6,468.4 899.5,212.1 1771.1,344.5 1732.1,600.9 	"/>
	
		<rect x="1196.5" y="-23.8" transform="matrix(0.1502 -0.9887 0.9887 0.1502 715.9533 1647.9154)" class="st6" width="240.3" height="862.5"/>
	
		<linearGradient id="SVGID_3_" gradientUnits="userSpaceOnUse" x1="-23.4331" y1="1078.0222" x2="-23.4331" y2="1078.8752" gradientTransform="matrix(7.5308 -49.5611 -58.1041 -8.8289 63895.6523 8985.166)">
		<stop  offset="0" style="stop-color:#808080;stop-opacity:0.251"/>
		<stop  offset="0.54" style="stop-color:#808080;stop-opacity:0.122"/>
		<stop  offset="1" style="stop-color:#808080;stop-opacity:0.102"/>
	</linearGradient>
	<polygon class="st7" points="986.7,639.7 994.2,590.1 1052.3,599 1044.8,648.5 	"/>
	
		<rect x="999.8" y="590.9" transform="matrix(0.1502 -0.9887 0.9887 0.1502 255.6307 1534.6116)" class="st6" width="41.5" height="55.3"/>
	
		<rect x="989.1" y="661" transform="matrix(0.1502 -0.9887 0.9887 0.1502 177.2904 1583.5963)" class="st2" width="41.5" height="55.3"/>
	
		<rect x="978.5" y="731.1" transform="matrix(0.1502 -0.9887 0.9887 0.1502 98.9813 1632.623)" class="st8" width="41.5" height="55.3"/>
	
		<rect x="1346.8" y="447" transform="matrix(0.1502 -0.9887 0.9887 0.1502 492.3219 1912.7887)" class="st9" width="24.2" height="445.9"/>
	
		<rect x="1336.1" y="517.1" transform="matrix(0.1502 -0.9887 0.9887 0.1502 413.9955 1961.7975)" class="st9" width="24.2" height="445.9"/>
	
		<rect x="1325.5" y="587.2" transform="matrix(0.1502 -0.9887 0.9887 0.1502 335.6863 2010.8243)" class="st9" width="24.2" height="445.9"/>
	
		<rect x="14.6" y="132" transform="matrix(0.9759 -0.2181 0.2181 0.9759 -20.3116 120.8628)" class="st0" width="1045.3" height="40.8"/>
	
		<linearGradient id="SVGID_4_" gradientUnits="userSpaceOnUse" x1="-23.4835" y1="1079.0132" x2="-23.4835" y2="1080.0132" gradientTransform="matrix(1063.191 -237.6514 -168.4502 -753.6029 207423.625 808421.6875)">
		<stop  offset="0" style="stop-color:#808080;stop-opacity:0.251"/>
		<stop  offset="0.54" style="stop-color:#808080;stop-opacity:0.122"/>
		<stop  offset="1" style="stop-color:#808080;stop-opacity:0.102"/>
	</linearGradient>
	<polygon class="st10" points="0,237.6 1063.2,0 1231.6,753.6 168.4,991.2 	"/>
	
		<rect x="95.8" y="163.9" transform="matrix(0.9759 -0.2181 0.2181 0.9759 -97.6597 147.3422)" class="st0" width="1045.3" height="704.2"/>
	<ellipse transform="matrix(0.9759 -0.2181 0.2181 0.9759 -55.6506 17.6435)" class="st2" cx="52.1" cy="260.9" rx="10.8" ry="10"/>
	<ellipse transform="matrix(0.9759 -0.2181 0.2181 0.9759 -53.5433 23.8113)" class="st3" cx="81.1" cy="254.4" rx="10.8" ry="10"/>
	<ellipse transform="matrix(0.9759 -0.2181 0.2181 0.9759 -51.4329 29.9743)" class="st4" cx="110" cy="247.9" rx="10.8" ry="10"/>
	
		<linearGradient id="SVGID_5_" gradientUnits="userSpaceOnUse" x1="-23.48" y1="1079.0685" x2="-23.48" y2="1080.0685" gradientTransform="matrix(915.933 -204.7353 -55.6569 -248.9944 82160.6563 264336.7188)">
		<stop  offset="0" style="stop-color:#808080;stop-opacity:0.251"/>
		<stop  offset="0.54" style="stop-color:#808080;stop-opacity:0.122"/>
		<stop  offset="1" style="stop-color:#808080;stop-opacity:0.102"/>
	</linearGradient>
	<polygon class="st11" points="88.5,338.2 1004.4,133.4 1060,382.4 144.1,587.1 	"/>
	
		<rect x="116.2" y="242.7" transform="matrix(0.9759 -0.2181 0.2181 0.9759 -64.8714 134.197)" class="st6" width="918.3" height="236.4"/>
	
		<linearGradient id="SVGID_6_" gradientUnits="userSpaceOnUse" x1="-23.1307" y1="1080.4749" x2="-23.1307" y2="1081.4749" gradientTransform="matrix(61.0621 -13.649 -10.758 -48.1283 13382.25 52299.2656)">
		<stop  offset="0" style="stop-color:#808080;stop-opacity:0.251"/>
		<stop  offset="0.54" style="stop-color:#808080;stop-opacity:0.122"/>
		<stop  offset="1" style="stop-color:#808080;stop-opacity:0.102"/>
	</linearGradient>
	<polygon class="st12" points="321.9,648.5 383,634.8 393.7,683 332.7,696.6 	"/>
	
		<rect x="333.7" y="647.3" transform="matrix(0.9757 -0.219 0.219 0.9757 -137.4495 95.783)" class="st6" width="59.2" height="41"/>
	
		<rect x="344.3" y="712.3" transform="matrix(0.9759 -0.2181 0.2181 0.9759 -150.8434 99.1746)" class="st2" width="58.9" height="40.8"/>
	
		<rect x="364.5" y="783.9" transform="matrix(0.9757 -0.219 0.219 0.9757 -166.6256 105.8515)" class="st8" width="59.2" height="41"/>
	
		<rect x="476.7" y="573.3" transform="matrix(0.9759 -0.2181 0.2181 0.9759 -110.4596 169.8694)" class="st9" width="474.8" height="23.8"/>
	
		<rect x="491.9" y="641.4" transform="matrix(0.9759 -0.2181 0.2181 0.9759 -124.9417 174.8267)" class="st9" width="474.8" height="23.8"/>
	
		<rect x="507.1" y="709.4" transform="matrix(0.9759 -0.2181 0.2181 0.9759 -139.4191 179.7836)" class="st9" width="474.8" height="23.8"/>
	<rect x="354.9" y="38.6" class="st0" width="1185.4" height="50.1"/>
	
		<linearGradient id="SVGID_7_" gradientUnits="userSpaceOnUse" x1="-23.4856" y1="1078.9969" x2="-23.4856" y2="1079.9969" gradientTransform="matrix(1235.52 0 0 -947.51 29966.6465 1023329.8125)">
		<stop  offset="0" style="stop-color:#808080;stop-opacity:0.251"/>
		<stop  offset="0.54" style="stop-color:#808080;stop-opacity:0.122"/>
		<stop  offset="1" style="stop-color:#808080;stop-opacity:0.102"/>
	</linearGradient>
	<rect x="332" y="21.9" class="st13" width="1235.5" height="947.5"/>
	<rect x="354.9" y="88.7" class="st14" width="1185.4" height="864"/>
	<circle class="st2" cx="383.9" cy="63.6" r="12.3"/>
	<circle class="st3" cx="417.6" cy="63.6" r="12.3"/>
	<circle class="st4" cx="451.2" cy="63.6" r="12.3"/>
	
		<linearGradient id="SVGID_8_" gradientUnits="userSpaceOnUse" x1="-23.4825" y1="1078.9969" x2="-23.4825" y2="1079.9969" gradientTransform="matrix(1064.384 0 0 -313.054 25931.5742 338263.25)">
		<stop  offset="0" style="stop-color:#808080;stop-opacity:0.251"/>
		<stop  offset="0.54" style="stop-color:#808080;stop-opacity:0.122"/>
		<stop  offset="1" style="stop-color:#808080;stop-opacity:0.102"/>
	</linearGradient>
	<rect x="405" y="165.9" class="st15" width="1064.4" height="313.1"/>
	<rect x="417.6" y="178.4" class="st6" width="1041.4" height="290.1"/>
	
		<linearGradient id="SVGID_9_" gradientUnits="userSpaceOnUse" x1="-23.1668" y1="1078.9969" x2="-23.1668" y2="1079.9969" gradientTransform="matrix(70.959 0 0 -60.524 2265.9768 65965.7188)">
		<stop  offset="0" style="stop-color:#808080;stop-opacity:0.251"/>
		<stop  offset="0.54" style="stop-color:#808080;stop-opacity:0.122"/>
		<stop  offset="1" style="stop-color:#808080;stop-opacity:0.102"/>
	</linearGradient>
	<rect x="586.6" y="600" class="st16" width="71" height="60.5"/>
	<rect x="589.7" y="604.2" class="st6" width="66.8" height="50.1"/>
	<rect x="589.7" y="689.7" class="st2" width="66.8" height="50.1"/>
	<rect x="589.7" y="775.3" class="st8" width="66.8" height="50.1"/>
	<rect x="767.1" y="614.6" class="st9" width="538.5" height="29.2"/>
	<rect x="767.1" y="700.2" class="st9" width="538.5" height="29.2"/>
	<rect x="767.1" y="785.7" class="st9" width="538.5" height="29.2"/>
	
		<linearGradient id="SVGID_10_" gradientUnits="userSpaceOnUse" x1="-23.4432" y1="1078.9969" x2="-23.4432" y2="1079.9969" gradientTransform="matrix(388.187 0 0 -319.315 10054.2578 345619.9375)">
		<stop  offset="0" style="stop-color:#808080;stop-opacity:0.251"/>
		<stop  offset="0.54" style="stop-color:#808080;stop-opacity:0.122"/>
		<stop  offset="1" style="stop-color:#808080;stop-opacity:0.102"/>
	</linearGradient>
	<rect x="759.8" y="760.7" class="st17" width="388.2" height="319.3"/>
	
		<linearGradient id="SVGID_11_" gradientUnits="userSpaceOnUse" x1="-23.4188" y1="1078.9969" x2="-23.4188" y2="1079.9969" gradientTransform="matrix(278.274 0 0 -208.7221 7474.9282 225990)">
		<stop  offset="0" style="stop-color:#808080;stop-opacity:0.251"/>
		<stop  offset="0.54" style="stop-color:#808080;stop-opacity:0.122"/>
		<stop  offset="1" style="stop-color:#808080;stop-opacity:0.102"/>
	</linearGradient>
	<path class="st18" d="M849.4,709.9c0-60,48.7-108.7,108.7-108.7s108.7,48.7,108.7,108.7v69.6h30.4v-69.6
		c0-76.8-62.3-139.1-139.1-139.2S819,633,819,709.9c0,0,0,0,0,0l0,69.6h30.4V709.9z"/>
	<path class="st14" d="M853.7,708.5C853.5,650.9,900,604,957.6,603.7c57.6-0.3,104.6,46.3,104.8,103.9c0,0.3,0,0.6,0,0.9v66.8h29.2
		v-66.8c0-73.8-59.8-133.6-133.6-133.5c-73.8,0-133.5,59.8-133.5,133.5v66.8h29.2L853.7,708.5z"/>
	<rect x="776.5" y="771.1" class="st6" width="363.1" height="296.4"/>
	<rect x="776.5" y="771.1" class="st14" width="363.1" height="296.4"/>
	<rect x="776.5" y="829.6" class="st6" width="363.1" height="179.5"/>
	
		<linearGradient id="SVGID_12_" gradientUnits="userSpaceOnUse" x1="-23.0544" y1="1078.9969" x2="-23.0544" y2="1079.996" gradientTransform="matrix(53.26 0 0 -121.3112 2185.9949 131874.3281)">
		<stop  offset="0" style="stop-color:#808080;stop-opacity:0.251"/>
		<stop  offset="0.54" style="stop-color:#808080;stop-opacity:0.122"/>
		<stop  offset="1" style="stop-color:#808080;stop-opacity:0.102"/>
	</linearGradient>
	<path class="st19" d="M984.7,885.4c0.1-14.7-11.8-26.7-26.5-26.8c-14.7-0.1-26.7,11.8-26.8,26.5c0,6.9,2.6,13.5,7.3,18.5v56.8
		c-0.1,10.7,8.5,19.4,19.2,19.5c10.7,0.1,19.4-8.5,19.5-19.2c0-0.1,0-0.2,0-0.3v-56.8C982.2,898.7,984.8,892.2,984.7,885.4
		L984.7,885.4z"/>
	<path class="st20" d="M981.1,890.1c0-12.7-10.2-23-22.9-23c-12.7,0-23,10.2-23,22.9c0,5.9,2.2,11.5,6.3,15.8v49
		c-0.2,9.2,7.1,16.9,16.3,17.1c9.2,0.2,16.9-7.1,17.1-16.3c0-0.2,0-0.5,0-0.7v-49C978.8,901.5,981,895.9,981.1,890.1z"/>
</g>
</svg>
